<svg width="48" height="48" viewBox="0 0 48 48" fill="none" xmlns="http://www.w3.org/2000/svg">
<path d="M0 24C0 10.7452 10.7452 0 24 0C37.2548 0 48 10.7452 48 24C48 37.2548 37.2548 48 24 48C10.7452 48 0 37.2548 0 24Z" fill="#0C1722"/>
<path d="M25.916 14.75C26.1163 14.7501 26.3084 14.8302 26.4492 14.9727L26.5205 15.0449C28.1828 16.7277 28.6473 19.269 27.6943 21.4395L27.5586 21.75H32.0225C33.912 21.75 35.2105 23.6311 34.5967 25.4063L32.5215 31.4063C32.141 32.5059 31.1112 33.25 29.9473 33.25H15C14.0335 33.25 13.25 32.4665 13.25 31.5V23.5C13.25 22.5335 14.0335 21.75 15 21.75H18.6865L25.3818 14.9727C25.5227 14.83 25.7155 14.75 25.916 14.75ZM15 23.25C14.8619 23.25 14.75 23.3619 14.75 23.5V31.5C14.75 31.6381 14.8619 31.75 15 31.75H18.25V23.25H15ZM19.75 22.8076V31.75H29.9473C30.4623 31.75 30.9289 31.4202 31.1035 30.916L33.1787 24.916C33.4642 24.0904 32.8551 23.25 32.0225 23.25H26.4102C26.157 23.25 25.9207 23.1221 25.7822 22.9102C25.6437 22.6981 25.6208 22.4302 25.7227 22.1982L26.3213 20.8369C26.9383 19.4317 26.7529 17.8177 25.8799 16.6035L19.75 22.8076Z" fill="#161616"/>
<path d="M25.916 14.75C26.1163 14.7501 26.3084 14.8302 26.4492 14.9727L26.5205 15.0449C28.1828 16.7277 28.6473 19.269 27.6943 21.4395L27.5586 21.75H32.0225C33.912 21.75 35.2105 23.6311 34.5967 25.4063L32.5215 31.4063C32.141 32.5059 31.1112 33.25 29.9473 33.25H15C14.0335 33.25 13.25 32.4665 13.25 31.5V23.5C13.25 22.5335 14.0335 21.75 15 21.75H18.6865L25.3818 14.9727C25.5227 14.83 25.7155 14.75 25.916 14.75ZM15 23.25C14.8619 23.25 14.75 23.3619 14.75 23.5V31.5C14.75 31.6381 14.8619 31.75 15 31.75H18.25V23.25H15ZM19.75 22.8076V31.75H29.9473C30.4623 31.75 30.9289 31.4202 31.1035 30.916L33.1787 24.916C33.4642 24.0904 32.8551 23.25 32.0225 23.25H26.4102C26.157 23.25 25.9207 23.1221 25.7822 22.9102C25.6437 22.6981 25.6208 22.4302 25.7227 22.1982L26.3213 20.8369C26.9383 19.4317 26.7529 17.8177 25.8799 16.6035L19.75 22.8076Z" fill="url(#paint0_linear_54827_17466)"/>
<defs>
<linearGradient id="paint0_linear_54827_17466" x1="13.25" y1="24" x2="34.7504" y2="23.9814" gradientUnits="userSpaceOnUse">
<stop stop-color="#05FB8C"/>
<stop offset="1" stop-color="#01B9D3"/>
</linearGradient>
</defs>
</svg>
